<svg width="32" height="24" viewBox="0 0 32 24" fill="none" xmlns="http://www.w3.org/2000/svg">
  <rect width="32" height="24" rx="2" fill="#B22234"/>
  <rect y="2" width="32" height="2" fill="white"/>
  <rect y="6" width="32" height="2" fill="white"/>
  <rect y="10" width="32" height="2" fill="white"/>
  <rect y="14" width="32" height="2" fill="white"/>
  <rect y="18" width="32" height="2" fill="white"/>
  <rect y="22" width="32" height="2" fill="white"/>
  <rect width="13" height="13" fill="#3C3B6E"/>
  <g fill="white">
    <circle cx="2.5" cy="2.5" r="0.5"/>
    <circle cx="5.5" cy="2.5" r="0.5"/>
    <circle cx="8.5" cy="2.5" r="0.5"/>
    <circle cx="11.5" cy="2.5" r="0.5"/>
    <circle cx="4" cy="4.5" r="0.5"/>
    <circle cx="7" cy="4.5" r="0.5"/>
    <circle cx="10" cy="4.5" r="0.5"/>
    <circle cx="2.5" cy="6.5" r="0.5"/>
    <circle cx="5.5" cy="6.5" r="0.5"/>
    <circle cx="8.5" cy="6.5" r="0.5"/>
    <circle cx="11.5" cy="6.5" r="0.5"/>
    <circle cx="4" cy="8.5" r="0.5"/>
    <circle cx="7" cy="8.5" r="0.5"/>
    <circle cx="10" cy="8.5" r="0.5"/>
    <circle cx="2.5" cy="10.5" r="0.5"/>
    <circle cx="5.5" cy="10.5" r="0.5"/>
    <circle cx="8.5" cy="10.5" r="0.5"/>
    <circle cx="11.5" cy="10.5" r="0.5"/>
  </g>
</svg> 